<svg width="64" height="64" viewBox="0 0 64 64" fill="none" xmlns="http://www.w3.org/2000/svg">
<g clip-path="url(#clip0_13_255)">
<path d="M56 0H8C3.58172 0 0 3.58172 0 8V56C0 60.4183 3.58172 64 8 64H56C60.4183 64 64 60.4183 64 56V8C64 3.58172 60.4183 0 56 0Z" fill="#1E1E1E"/>
<path fill-rule="evenodd" clip-rule="evenodd" d="M41.7071 26.2929C42.0976 26.6834 42.0976 27.3166 41.7071 27.7071L37.7071 31.7071C37.3166 32.0976 36.6834 32.0976 36.2929 31.7071C35.9024 31.3166 35.9024 30.6834 36.2929 30.2929L38.5858 28H23C22.4477 28 22 27.5523 22 27C22 26.4477 22.4477 26 23 26H38.5858L36.2929 23.7071C35.9024 23.3166 35.9024 22.6834 36.2929 22.2929C36.6834 21.9024 37.3166 21.9024 37.7071 22.2929L41.7071 26.2929ZM41 36C41.5523 36 42 36.4477 42 37C42 37.5523 41.5523 38 41 38H25.4142L27.7071 40.2929C28.0976 40.6834 28.0976 41.3166 27.7071 41.7071C27.3166 42.0976 26.6834 42.0976 26.2929 41.7071L22.2929 37.7071C21.9024 37.3166 21.9024 36.6834 22.2929 36.2929L26.2929 32.2929C26.6834 31.9024 27.3166 31.9024 27.7071 32.2929C28.0976 32.6834 28.0976 33.3166 27.7071 33.7071L25.4142 36H41Z" fill="white"/>
</g>
<defs>
<clipPath id="clip0_13_255">
<rect width="64" height="64" fill="white"/>
</clipPath>
</defs>
</svg>
