<svg width="64" height="64" viewBox="0 0 64 64" fill="none" xmlns="http://www.w3.org/2000/svg">
<g clip-path="url(#clip0_13_260)">
<path d="M56 0H8C3.58172 0 0 3.58172 0 8V56C0 60.4183 3.58172 64 8 64H56C60.4183 64 64 60.4183 64 56V8C64 3.58172 60.4183 0 56 0Z" fill="#1E1E1E"/>
<path fill-rule="evenodd" clip-rule="evenodd" d="M38.7468 23.3349C38.3794 22.9225 37.7473 22.8859 37.3349 23.2532C36.9225 23.6206 36.8859 24.2527 37.2532 24.6651C38.99 26.6151 40 29.1517 40 32C40 34.828 38.9036 37.3784 37.2357 39.3551C36.8796 39.7772 36.933 40.4081 37.3551 40.7643C37.7772 41.1205 38.4081 41.067 38.7643 40.6449C40.6964 38.3549 42 35.3587 42 32C42 28.6617 40.81 25.6516 38.7468 23.3349ZM32.6402 29.2318C32.2159 28.8782 31.5853 28.9355 31.2318 29.3598C30.8782 29.7841 30.9355 30.4147 31.3598 30.7682C31.8283 31.1586 32 31.5557 32 32C32 32.4443 31.8283 32.8414 31.3598 33.2318C30.9355 33.5854 30.8782 34.2159 31.2318 34.6402C31.5853 35.0645 32.2159 35.1218 32.6402 34.7682C33.5051 34.0475 34 33.1113 34 32C34 30.8888 33.5051 29.9525 32.6402 29.2318ZM34.3378 26.2507C34.7516 25.885 35.3836 25.924 35.7493 26.3378C37.1026 27.8691 38 29.7988 38 32C38 34.1805 37.1172 36.2346 35.7223 37.6916C35.3404 38.0905 34.7074 38.1043 34.3084 37.7223C33.9095 37.3404 33.8957 36.7074 34.2777 36.3085C35.3272 35.2122 36 33.6493 36 32C36 30.3715 35.3419 28.8969 34.2507 27.6622C33.885 27.2484 33.924 26.6164 34.3378 26.2507ZM25 35.0001L22.2 35C22.0895 35 22 34.9105 22 34.8V29.2C22 29.0896 22.0895 29 22.2 29H25L28.68 26.2401C28.8118 26.1412 29 26.2353 29 26.4001V37.6001C29 37.7649 28.8118 37.859 28.68 37.7601L25 35.0001Z" fill="white"/>
</g>
<defs>
<clipPath id="clip0_13_260">
<rect width="64" height="64" fill="white"/>
</clipPath>
</defs>
</svg>
