<svg width="64" height="64" viewBox="0 0 64 64" fill="none" xmlns="http://www.w3.org/2000/svg">
<g clip-path="url(#clip0_13_265)">
<path d="M56 0H8C3.58172 0 0 3.58172 0 8V56C0 60.4183 3.58172 64 8 64H56C60.4183 64 64 60.4183 64 56V8C64 3.58172 60.4183 0 56 0Z" fill="#1E1E1E"/>
<path fill-rule="evenodd" clip-rule="evenodd" d="M37 21C36.4477 21 36 21.4477 36 22V26H32C31.4477 26 31 26.4477 31 27V32H28V30C28 29.4477 27.5523 29 27 29H22C21.4477 29 21 29.4477 21 30V42C21 42.5523 21.4477 43 22 43H27H32H37H42C42.5523 43 43 42.5523 43 42V22C43 21.4477 42.5523 21 42 21H37ZM36 41V28H33V33V41H36ZM38 41H41V23H38V27V41ZM31 34V41H28V34H31ZM26 33V31H23V41H26V33Z" fill="white"/>
</g>
<defs>
<clipPath id="clip0_13_265">
<rect width="64" height="64" fill="white"/>
</clipPath>
</defs>
</svg>
