<svg width="424" height="303" viewBox="0 0 424 303" fill="none" xmlns="http://www.w3.org/2000/svg">
<g clip-path="url(#clip0_13_371)">
<path d="M396.21 0H193.062C177.849 0 165.517 12.3325 165.517 27.5455V275.455C165.517 290.667 177.849 303 193.062 303H396.21C411.423 303 423.756 290.667 423.756 275.455V27.5455C423.756 12.3325 411.423 0 396.21 0Z" fill="#181818"/>
<path d="M261.926 27.5454H206.835C199.229 27.5454 193.062 33.7117 193.062 41.3181V96.409C193.062 104.016 199.229 110.182 206.835 110.182H261.926C269.533 110.182 275.699 104.016 275.699 96.409V41.3181C275.699 33.7117 269.533 27.5454 261.926 27.5454Z" fill="#E2E28E"/>
<path d="M222.197 61.0614V58.114H224.524C225.613 58.114 226.205 58.6374 226.205 59.5739C226.205 60.5242 225.613 61.0614 224.524 61.0614H222.197ZM224.538 62.7279C226.783 62.7279 228.064 61.4883 228.064 59.5877C228.064 57.7008 226.769 56.4475 224.538 56.4475H220.365V66.2812H222.197V62.7279H224.538Z" fill="black"/>
<path d="M233.553 59.1195C233.387 58.9955 233.002 58.8716 232.602 58.8716C231.79 58.8716 231.046 59.3123 230.619 59.9734V59.0093H228.87V66.2813H230.619V62.8794C230.619 61.268 231.404 60.4968 232.396 60.4968C232.699 60.4968 233.057 60.5656 233.25 60.6896L233.553 59.1195Z" fill="black"/>
<path d="M235.461 61.8327C235.544 60.8548 236.205 60.1937 237.196 60.1937C238.092 60.1937 238.808 60.7309 238.89 61.8327H235.461ZM233.574 62.6728C233.574 64.8351 234.91 66.4465 237.279 66.4465C238.574 66.4465 239.62 65.9645 240.378 65.0555L239.262 63.995C238.794 64.5872 238.147 64.8902 237.375 64.8902C236.287 64.8902 235.461 64.2567 235.447 63.0584H240.584C240.598 62.8932 240.626 62.6728 240.626 62.4111C240.626 60.3452 239.331 58.844 237.169 58.844C234.896 58.844 233.574 60.5105 233.574 62.6728Z" fill="black"/>
<path d="M241.675 59.0093V68.6777H243.424V65.3447C243.934 66.0885 244.76 66.4465 245.669 66.4465C247.652 66.4465 248.933 64.7938 248.933 62.6315C248.933 60.483 247.652 58.844 245.669 58.844C244.774 58.844 243.934 59.1883 243.424 59.932V59.0093H241.675ZM243.424 62.6315C243.424 61.3782 244.058 60.3728 245.297 60.3728C246.509 60.3728 247.102 61.392 247.102 62.6315C247.102 63.8848 246.509 64.9178 245.297 64.9178C244.072 64.9178 243.424 63.8986 243.424 62.6315Z" fill="black"/>
<path d="M230.038 82.6365L226.182 76.8106L229.666 72.8027H227.435L223.331 77.5956V72.8027H221.499V82.6365H223.331V80.0059L224.901 78.1741L227.834 82.6365H230.038Z" fill="black"/>
<path d="M232.551 80.9837V74.4692H234.589C236.49 74.4692 237.495 75.7363 237.495 77.7196C237.495 79.7029 236.49 80.9837 234.589 80.9837H232.551ZM234.589 82.6365C237.688 82.6365 239.396 80.5155 239.396 77.7196C239.396 74.91 237.688 72.8027 234.589 72.8027H230.719V82.6365H234.589Z" fill="black"/>
<path d="M243.793 74.1799C244.825 74.1799 245.735 74.6344 246.244 75.3643L247.608 74.4278C246.712 73.1607 245.294 72.6235 243.834 72.6235C241.809 72.6235 240.225 73.6565 240.225 75.502C240.225 77.5129 242.057 78.1051 243.806 78.4494C245.005 78.7111 246.01 78.9177 246.01 79.868C246.01 80.7219 245.252 81.259 244.054 81.259C243.063 81.259 241.961 80.8459 241.369 79.8129L239.95 80.777C240.707 82.0441 242.167 82.8154 243.985 82.8154C246.396 82.8154 247.814 81.4656 247.814 79.6889C247.814 77.2649 245.087 76.9344 243.462 76.5074C242.649 76.2871 242.057 75.9979 242.057 75.3781C242.057 74.593 242.842 74.1799 243.793 74.1799Z" fill="black"/>
<path d="M261.926 192.818H206.835C199.229 192.818 193.062 198.984 193.062 206.591V261.682C193.062 269.288 199.229 275.454 206.835 275.454H261.926C269.533 275.454 275.699 269.288 275.699 261.682V206.591C275.699 198.984 269.533 192.818 261.926 192.818Z" fill="#E2E28E"/>
<path d="M222.197 226.334V223.387H224.524C225.613 223.387 226.205 223.91 226.205 224.847C226.205 225.797 225.613 226.334 224.524 226.334H222.197ZM224.538 228.001C226.783 228.001 228.064 226.761 228.064 224.86C228.064 222.974 226.769 221.72 224.538 221.72H220.365V231.554H222.197V228.001H224.538Z" fill="black"/>
<path d="M233.553 224.392C233.387 224.268 233.002 224.144 232.602 224.144C231.79 224.144 231.046 224.585 230.619 225.246V224.282H228.87V231.554H230.619V228.152C230.619 226.541 231.404 225.769 232.396 225.769C232.699 225.769 233.057 225.838 233.25 225.962L233.553 224.392Z" fill="black"/>
<path d="M235.461 227.105C235.544 226.128 236.205 225.466 237.196 225.466C238.092 225.466 238.808 226.004 238.89 227.105H235.461ZM233.574 227.946C233.574 230.108 234.91 231.719 237.279 231.719C238.574 231.719 239.62 231.237 240.378 230.328L239.262 229.268C238.794 229.86 238.147 230.163 237.375 230.163C236.287 230.163 235.461 229.529 235.447 228.331H240.584C240.598 228.166 240.626 227.946 240.626 227.684C240.626 225.618 239.331 224.117 237.169 224.117C234.896 224.117 233.574 225.783 233.574 227.946Z" fill="black"/>
<path d="M241.675 224.282V233.95H243.424V230.617C243.934 231.361 244.76 231.719 245.669 231.719C247.652 231.719 248.933 230.067 248.933 227.904C248.933 225.756 247.652 224.117 245.669 224.117C244.774 224.117 243.934 224.461 243.424 225.205V224.282H241.675ZM243.424 227.904C243.424 226.651 244.058 225.645 245.297 225.645C246.509 225.645 247.102 226.665 247.102 227.904C247.102 229.158 246.509 230.19 245.297 230.19C244.072 230.19 243.424 229.171 243.424 227.904Z" fill="black"/>
<path d="M230.038 247.909L226.182 242.083L229.666 238.075H227.435L223.331 242.868V238.075H221.499V247.909H223.331V245.279L224.901 243.447L227.834 247.909H230.038Z" fill="black"/>
<path d="M232.551 246.256V239.742H234.589C236.49 239.742 237.495 241.009 237.495 242.992C237.495 244.976 236.49 246.256 234.589 246.256H232.551ZM234.589 247.909C237.688 247.909 239.396 245.788 239.396 242.992C239.396 240.183 237.688 238.075 234.589 238.075H230.719V247.909H234.589Z" fill="black"/>
<path d="M243.793 239.453C244.825 239.453 245.735 239.907 246.244 240.637L247.608 239.7C246.712 238.433 245.294 237.896 243.834 237.896C241.809 237.896 240.225 238.929 240.225 240.775C240.225 242.786 242.057 243.378 243.806 243.722C245.005 243.984 246.01 244.19 246.01 245.141C246.01 245.995 245.252 246.532 244.054 246.532C243.063 246.532 241.961 246.119 241.369 245.086L239.95 246.05C240.707 247.317 242.167 248.088 243.985 248.088C246.396 248.088 247.814 246.738 247.814 244.962C247.814 242.538 245.087 242.207 243.462 241.78C242.649 241.56 242.057 241.271 242.057 240.651C242.057 239.866 242.842 239.453 243.793 239.453Z" fill="black"/>
<path d="M382.437 110.182H327.347C319.74 110.182 313.574 116.348 313.574 123.955V179.046C313.574 186.652 319.74 192.818 327.347 192.818H382.437C390.044 192.818 396.21 186.652 396.21 179.046V123.955C396.21 116.348 390.044 110.182 382.437 110.182Z" fill="#404040"/>
<path d="M346.847 148.918V147.265H341.572V144.579H346.145V143.064H341.572V140.75H346.709V139.084H339.74V148.918H346.847Z" fill="white"/>
<path d="M354.708 148.918L352.146 145.116L354.501 141.646H352.449L351.03 144.056L349.557 141.646H347.491L349.846 145.116L347.271 148.918H349.378L350.989 146.259L352.601 148.918H354.708Z" fill="white"/>
<path d="M355.394 141.646V151.314H357.143V147.981C357.653 148.725 358.479 149.083 359.388 149.083C361.371 149.083 362.652 147.43 362.652 145.268C362.652 143.119 361.371 141.48 359.388 141.48C358.493 141.48 357.653 141.825 357.143 142.569V141.646H355.394ZM357.143 145.268C357.143 144.015 357.776 143.009 359.016 143.009C360.228 143.009 360.82 144.028 360.82 145.268C360.82 146.521 360.228 147.554 359.016 147.554C357.79 147.554 357.143 146.535 357.143 145.268Z" fill="white"/>
<path d="M370.613 145.296C370.613 143.051 369.18 141.48 366.949 141.48C364.718 141.48 363.286 143.051 363.286 145.296C363.286 147.527 364.718 149.083 366.949 149.083C369.18 149.083 370.613 147.527 370.613 145.296ZM368.767 145.282C368.767 146.604 368.12 147.596 366.949 147.596C365.792 147.596 365.145 146.604 365.145 145.282C365.145 143.946 365.792 142.968 366.949 142.968C368.12 142.968 368.767 143.946 368.767 145.282Z" fill="white"/>
<path d="M350.549 165.273L346.693 159.447L350.177 155.439H347.946L343.842 160.232V155.439H342.01V165.273H343.842V162.642L345.412 160.81L348.346 165.273H350.549Z" fill="white"/>
<path d="M353.062 163.62V157.105H355.1C357.001 157.105 358.006 158.373 358.006 160.356C358.006 162.339 357.001 163.62 355.1 163.62H353.062ZM355.1 165.273C358.199 165.273 359.907 163.152 359.907 160.356C359.907 157.546 358.199 155.439 355.1 155.439H351.23V165.273H355.1Z" fill="white"/>
<path d="M364.304 156.816C365.337 156.816 366.246 157.271 366.755 158.001L368.119 157.064C367.224 155.797 365.805 155.26 364.345 155.26C362.321 155.26 360.737 156.293 360.737 158.139C360.737 160.149 362.569 160.742 364.318 161.086C365.516 161.348 366.521 161.554 366.521 162.504C366.521 163.358 365.764 163.896 364.566 163.896C363.574 163.896 362.472 163.482 361.88 162.449L360.461 163.413C361.219 164.681 362.679 165.452 364.497 165.452C366.907 165.452 368.326 164.102 368.326 162.325C368.326 159.901 365.599 159.571 363.973 159.144C363.161 158.924 362.569 158.634 362.569 158.015C362.569 157.23 363.354 156.816 364.304 156.816Z" fill="white"/>
<path d="M233.924 117.473C234.177 117.22 234.585 117.22 234.837 117.473L238.945 121.581C239.198 121.833 239.198 122.241 238.945 122.494C238.693 122.746 238.285 122.746 238.033 122.494L234.381 118.842L230.728 122.494C230.476 122.746 230.068 122.746 229.816 122.494C229.564 122.241 229.564 121.833 229.816 121.581L233.924 117.473ZM234.837 185.527C234.585 185.779 234.177 185.779 233.924 185.527L229.816 181.419C229.564 181.166 229.564 180.758 229.816 180.506C230.068 180.254 230.476 180.254 230.728 180.506L234.381 184.158L238.033 180.506C238.285 180.254 238.693 180.254 238.945 180.506C239.198 180.758 239.198 181.166 238.945 181.419L234.837 185.527ZM355.348 102.891C355.096 103.143 354.688 103.143 354.436 102.891L350.327 98.7822C350.075 98.53 350.075 98.122 350.327 97.8697C350.579 97.6175 350.987 97.6175 351.24 97.8697L354.892 101.521L358.544 97.8697C358.797 97.6175 359.205 97.6175 359.457 97.8697C359.709 98.122 359.709 98.53 359.457 98.7822L355.348 102.891ZM282.129 69.32C281.877 69.0679 281.877 68.6592 282.129 68.407L286.238 64.2985C286.49 64.0463 286.898 64.0463 287.15 64.2985C287.402 64.5506 287.402 64.9594 287.15 65.2115L283.499 68.8635L287.15 72.5155C287.402 72.7677 287.402 73.1765 287.15 73.4286C286.898 73.6807 286.49 73.6807 286.238 73.4286L282.129 69.32ZM354.436 200.109C354.688 199.857 355.096 199.857 355.348 200.109L359.457 204.218C359.709 204.47 359.709 204.878 359.457 205.13C359.205 205.382 358.797 205.382 358.544 205.13L354.892 201.479L351.24 205.13C350.987 205.382 350.579 205.382 350.327 205.13C350.075 204.878 350.075 204.47 350.327 204.218L354.436 200.109ZM282.99 234.592C282.738 234.34 282.738 233.932 282.99 233.68L287.098 229.571C287.351 229.319 287.759 229.319 288.011 229.571C288.263 229.824 288.263 230.232 288.011 230.484L284.359 234.136L288.011 237.789C288.263 238.041 288.263 238.449 288.011 238.701C287.759 238.953 287.351 238.953 287.098 238.701L282.99 234.592ZM235.026 117.929V185.071H233.735V117.929H235.026ZM354.246 102.435V79.1931H355.538V102.435H354.246ZM344.568 69.5091H282.585V68.2179H344.568V69.5091ZM355.538 200.565V223.807H354.246V200.565H355.538ZM344.562 234.782H283.446V233.491H344.562V234.782ZM355.538 223.807C355.538 229.868 350.624 234.782 344.562 234.782V233.491C349.911 233.491 354.246 229.155 354.246 223.807H355.538ZM354.246 79.1931C354.246 73.8443 349.916 69.5091 344.568 69.5091V68.2179C350.629 68.2179 355.538 73.1321 355.538 79.1931H354.246Z" fill="#666666"/>
<path d="M158.226 151.044C158.478 151.296 158.478 151.704 158.226 151.956L154.117 156.065C153.865 156.317 153.457 156.317 153.205 156.065C152.953 155.813 152.953 155.405 153.205 155.152L156.856 151.5L153.205 147.848C152.953 147.595 152.953 147.187 153.205 146.935C153.457 146.683 153.865 146.683 154.117 146.935L158.226 151.044ZM137.971 150.854H157.77V152.146H137.971V150.854ZM75.1334 260.821H113.869V262.112H75.1334V260.821ZM123.553 251.137V165.273H124.844V251.137H123.553ZM113.869 260.821C119.217 260.821 123.553 256.485 123.553 251.137H124.844C124.844 257.199 119.931 262.112 113.869 262.112V260.821ZM137.971 152.146C130.722 152.146 124.844 158.023 124.844 165.273H123.553C123.553 157.31 130.008 150.854 137.971 150.854V152.146Z" fill="#666666"/>
<path d="M137.972 152.146H145.288V150.854H137.972V152.146ZM76.8551 41.9638H113.869V40.6726H76.8551V41.9638ZM123.553 51.6477V137.727H124.844V51.6477H123.553ZM113.869 41.9638C119.217 41.9638 123.553 46.2995 123.553 51.6477H124.844C124.844 45.5864 119.931 40.6726 113.869 40.6726V41.9638ZM137.972 150.854C130.722 150.854 124.844 144.977 124.844 137.727H123.553C123.553 145.691 130.008 152.146 137.972 152.146V150.854Z" fill="#666666"/>
<path d="M77.7158 150.854H137.111V152.146H77.7158V150.854Z" fill="#666666"/>
<path d="M69.1079 220.364H14.017C6.41052 220.364 0.244263 226.53 0.244263 234.136V289.227C0.244263 296.834 6.41052 303 14.017 303H69.1079C76.7144 303 82.8806 296.834 82.8806 289.227V234.136C82.8806 226.53 76.7144 220.364 69.1079 220.364Z" fill="#1E1E1E"/>
<path d="M30.5793 261.627V258.679H32.9069C33.995 258.679 34.5872 259.203 34.5872 260.139C34.5872 261.09 33.995 261.627 32.9069 261.627H30.5793ZM32.9207 263.293C35.1656 263.293 36.4465 262.054 36.4465 260.153C36.4465 258.266 35.1519 257.013 32.9207 257.013H28.7476V266.847H30.5793V263.293H32.9207Z" fill="white"/>
<path d="M46.547 261.93C46.547 259.051 44.7015 256.834 41.7266 256.834C38.7517 256.834 36.9061 259.051 36.9061 261.93C36.9061 264.794 38.7517 267.026 41.7266 267.026C44.7015 267.026 46.547 264.794 46.547 261.93ZM44.6464 261.93C44.6464 263.885 43.5721 265.304 41.7266 265.304C39.881 265.304 38.8205 263.885 38.8205 261.93C38.8205 259.974 39.881 258.555 41.7266 258.555C43.5721 258.555 44.6464 259.974 44.6464 261.93Z" fill="white"/>
<path d="M50.9072 258.39C51.9401 258.39 52.8491 258.845 53.3587 259.575L54.7222 258.638C53.827 257.371 52.4084 256.834 50.9485 256.834C48.9239 256.834 47.34 257.867 47.34 259.712C47.34 261.723 49.1718 262.315 50.9209 262.66C52.1192 262.921 53.1246 263.128 53.1246 264.078C53.1246 264.932 52.3671 265.469 51.1688 265.469C50.1772 265.469 49.0754 265.056 48.4832 264.023L47.0646 264.987C47.8221 266.254 49.282 267.026 51.1 267.026C53.5102 267.026 54.9288 265.676 54.9288 263.899C54.9288 261.475 52.2018 261.145 50.5766 260.718C49.764 260.497 49.1718 260.208 49.1718 259.588C49.1718 258.803 49.9568 258.39 50.9072 258.39Z" fill="white"/>
<path d="M69.1079 0H14.017C6.41052 0 0.244263 6.16626 0.244263 13.7727V68.8636C0.244263 76.4701 6.41052 82.6364 14.017 82.6364H69.1079C76.7144 82.6364 82.8806 76.4701 82.8806 68.8636V13.7727C82.8806 6.16626 76.7144 0 69.1079 0Z" fill="#1E1E1E"/>
<path d="M31.5265 34.6796C31.5265 31.8011 29.681 29.5837 26.7061 29.5837C23.7312 29.5837 21.8856 31.8011 21.8856 34.6796C21.8856 37.5444 23.7312 39.7756 26.7061 39.7756C29.681 39.7756 31.5265 37.5444 31.5265 34.6796ZM29.6259 34.6796C29.6259 36.6354 28.5516 38.054 26.7061 38.054C24.8605 38.054 23.8 36.6354 23.8 34.6796C23.8 32.7239 24.8605 31.3053 26.7061 31.3053C28.5516 31.3053 29.6259 32.7239 29.6259 34.6796Z" fill="white"/>
<path d="M34.2634 39.5967V35.4924C34.2634 34.3906 34.9796 33.7295 35.9161 33.7295C36.9078 33.7295 37.1557 34.4319 37.1557 35.2032V39.5967H38.9048V34.8038C38.9048 33.2475 38.0096 32.1594 36.4808 32.1594C35.5167 32.1594 34.7317 32.5864 34.2634 33.2337V32.3247H32.5143V39.5967H34.2634Z" fill="white"/>
<path d="M42.0986 39.5967V29.7629H40.3495V39.5967H42.0986Z" fill="white"/>
<path d="M45.3467 31.2917V29.7629H43.5975V31.2917H45.3467ZM45.3467 39.5967V32.3247H43.5975V39.5967H45.3467Z" fill="white"/>
<path d="M48.5817 39.5967V35.4924C48.5817 34.3906 49.2978 33.7295 50.2344 33.7295C51.226 33.7295 51.4739 34.4319 51.4739 35.2032V39.5967H53.2231V34.8038C53.2231 33.2475 52.3278 32.1594 50.7991 32.1594C49.835 32.1594 49.0499 32.5864 48.5817 33.2337V32.3247H46.8325V39.5967H48.5817Z" fill="white"/>
<path d="M56.1001 35.1481C56.1828 34.1702 56.8438 33.5092 57.8355 33.5092C58.7307 33.5092 59.4469 34.0463 59.5295 35.1481H56.1001ZM54.2133 35.9882C54.2133 38.1506 55.5492 39.762 57.9181 39.762C59.2128 39.762 60.2595 39.2799 61.017 38.3709L59.9014 37.3104C59.4331 37.9027 58.7858 38.2056 58.0145 38.2056C56.9265 38.2056 56.1001 37.5721 56.0863 36.3739H61.2236C61.2373 36.2086 61.2649 35.9882 61.2649 35.7266C61.2649 33.6607 59.9703 32.1594 57.8079 32.1594C55.5354 32.1594 54.2133 33.8259 54.2133 35.9882Z" fill="white"/>
<path d="M25.4629 52.3364C26.2204 53.0939 27.3222 53.5347 28.6444 53.5347C30.5588 53.5347 31.7708 52.5981 31.7708 51.0831C31.7708 49.6508 30.669 49.1549 28.9336 48.8519C28.121 48.7142 27.3084 48.604 27.3084 48.0256C27.3084 47.5022 27.8869 47.3094 28.548 47.3094C29.4432 47.3094 30.2696 47.6675 30.6965 48.1495L31.6331 47.0615C31.0133 46.483 30.0079 45.9321 28.6168 45.9321C27.0468 45.9321 25.6695 46.607 25.6695 48.2046C25.6695 49.7334 26.9641 50.1741 28.3001 50.4083C29.5672 50.6286 30.0905 50.7388 30.0905 51.2897C30.0905 51.8957 29.5121 52.1436 28.7408 52.1436C27.9282 52.1436 27.0468 51.8957 26.3994 51.2346L25.4629 52.3364Z" fill="white"/>
<path d="M36.7418 51.7993C36.5765 51.9232 36.3148 52.0334 35.9705 52.0334C35.4885 52.0334 35.1166 51.8131 35.1166 51.028V47.5022H36.9071V46.0974H35.1166V43.5356H33.3675V46.0974H32.0453V47.5022H33.3675V51.3035C33.3675 52.8873 34.1663 53.5346 35.5573 53.5346C36.246 53.5346 36.8106 53.3694 37.1136 53.1628L36.7418 51.7993Z" fill="white"/>
<path d="M44.7239 49.7472C44.7239 47.5022 43.2916 45.9321 41.0604 45.9321C38.8292 45.9321 37.3969 47.5022 37.3969 49.7472C37.3969 51.9784 38.8292 53.5347 41.0604 53.5347C43.2916 53.5347 44.7239 51.9784 44.7239 49.7472ZM42.8784 49.7334C42.8784 51.0556 42.2311 52.0472 41.0604 52.0472C39.9035 52.0472 39.2562 51.0556 39.2562 49.7334C39.2562 48.3974 39.9035 47.4196 41.0604 47.4196C42.2311 47.4196 42.8784 48.3974 42.8784 49.7334Z" fill="white"/>
<path d="M50.4492 46.2074C50.2839 46.0834 49.8983 45.9595 49.4989 45.9595C48.6863 45.9595 47.9426 46.4002 47.5156 47.0613V46.0972H45.7665V53.3692H47.5156V49.9673C47.5156 48.3559 48.3007 47.5847 49.2923 47.5847C49.5953 47.5847 49.9534 47.6535 50.1462 47.7775L50.4492 46.2074Z" fill="white"/>
<path d="M52.3576 48.9208C52.4402 47.9429 53.1013 47.2819 54.0929 47.2819C54.9882 47.2819 55.7043 47.819 55.787 48.9208H52.3576ZM50.4707 49.7609C50.4707 51.9233 51.8067 53.5347 54.1756 53.5347C55.4702 53.5347 56.5169 53.0526 57.2744 52.1436L56.1588 51.0831C55.6906 51.6754 55.0432 51.9784 54.272 51.9784C53.1839 51.9784 52.3576 51.3448 52.3438 50.1466H57.481C57.4948 49.9813 57.5223 49.7609 57.5223 49.4993C57.5223 47.4334 56.2277 45.9321 54.0654 45.9321C51.7929 45.9321 50.4707 47.5986 50.4707 49.7609Z" fill="white"/>
<path d="M69.1079 110.182H14.017C6.41052 110.182 0.244263 116.348 0.244263 123.955V179.046C0.244263 186.652 6.41052 192.818 14.017 192.818H69.1079C76.7144 192.818 82.8806 186.652 82.8806 179.046V123.955C82.8806 116.348 76.7144 110.182 69.1079 110.182Z" fill="#1E1E1E"/>
<path d="M18.5514 148.126V141.611H20.5897C22.4904 141.611 23.4958 142.878 23.4958 144.861C23.4958 146.845 22.4904 148.126 20.5897 148.126H18.5514ZM20.5897 149.778C23.6886 149.778 25.3964 147.657 25.3964 144.861C25.3964 142.052 23.6886 139.945 20.5897 139.945H16.7196V149.778H20.5897Z" fill="white"/>
<path d="M27.8673 145.33C27.95 144.352 28.6111 143.691 29.6027 143.691C30.4979 143.691 31.2141 144.228 31.2967 145.33H27.8673ZM25.9805 146.17C25.9805 148.332 27.3164 149.944 29.6853 149.944C30.98 149.944 32.0267 149.462 32.7842 148.553L31.6686 147.492C31.2003 148.084 30.553 148.387 29.7817 148.387C28.6937 148.387 27.8673 147.754 27.8536 146.556H32.9908C33.0046 146.39 33.0321 146.17 33.0321 145.908C33.0321 143.842 31.7375 142.341 29.5752 142.341C27.3027 142.341 25.9805 144.008 25.9805 146.17Z" fill="white"/>
<path d="M35.8441 149.778V139.945H34.095V149.778H35.8441Z" fill="white"/>
<path d="M39.0922 141.473V139.945H37.343V141.473H39.0922ZM39.0922 149.778V142.506H37.343V149.778H39.0922Z" fill="white"/>
<path d="M47.065 142.506H45.1506L43.429 147.754L41.6936 142.506H39.7379L42.5062 149.778H44.3105L47.065 142.506Z" fill="white"/>
<path d="M48.9579 145.33C49.0405 144.352 49.7016 143.691 50.6933 143.691C51.5885 143.691 52.3047 144.228 52.3873 145.33H48.9579ZM47.071 146.17C47.071 148.332 48.407 149.944 50.7759 149.944C52.0705 149.944 53.1173 149.462 53.8748 148.553L52.7592 147.492C52.2909 148.084 51.6436 148.387 50.8723 148.387C49.7843 148.387 48.9579 147.754 48.9441 146.556H54.0814C54.0951 146.39 54.1227 146.17 54.1227 145.908C54.1227 143.842 52.828 142.341 50.6657 142.341C48.3932 142.341 47.071 144.008 47.071 146.17Z" fill="white"/>
<path d="M59.8545 142.617C59.6892 142.493 59.3036 142.369 58.9042 142.369C58.0916 142.369 57.3478 142.809 56.9209 143.47V142.506H55.1718V149.778H56.9209V146.377C56.9209 144.765 57.7059 143.994 58.6976 143.994C59.0006 143.994 59.3587 144.063 59.5515 144.187L59.8545 142.617Z" fill="white"/>
<path d="M60.8264 152.12C61.0192 152.216 61.3773 152.313 61.942 152.313C63.154 152.313 63.8289 151.803 64.5588 149.875L67.3547 142.506H65.4816L63.7462 147.561L61.9971 142.506H60.0276L62.8372 149.668C62.5067 150.55 62.245 150.853 61.7216 150.853C61.5426 150.853 61.3635 150.825 61.212 150.729L60.8264 152.12Z" fill="white"/>
<path d="M15.7213 162.518C16.4788 163.276 17.5806 163.716 18.9028 163.716C20.8172 163.716 22.0292 162.78 22.0292 161.265C22.0292 159.832 20.9274 159.337 19.192 159.034C18.3794 158.896 17.5669 158.786 17.5669 158.207C17.5669 157.684 18.1453 157.491 18.8064 157.491C19.7016 157.491 20.528 157.849 20.9549 158.331L21.8915 157.243C21.2717 156.665 20.2663 156.114 18.8753 156.114C17.3052 156.114 15.9279 156.789 15.9279 158.386C15.9279 159.915 17.2225 160.356 18.5585 160.59C19.8256 160.81 20.349 160.92 20.349 161.471C20.349 162.077 19.7705 162.325 18.9992 162.325C18.1866 162.325 17.3052 162.077 16.6579 161.416L15.7213 162.518Z" fill="white"/>
<path d="M24.5316 159.102C24.6143 158.125 25.2754 157.463 26.267 157.463C27.1622 157.463 27.8784 158.001 27.961 159.102H24.5316ZM22.6448 159.943C22.6448 162.105 23.9807 163.716 26.3496 163.716C27.6443 163.716 28.691 163.234 29.4485 162.325L28.3329 161.265C27.8646 161.857 27.2173 162.16 26.446 162.16C25.358 162.16 24.5316 161.526 24.5179 160.328H29.6551C29.6689 160.163 29.6964 159.943 29.6964 159.681C29.6964 157.615 28.4018 156.114 26.2395 156.114C23.967 156.114 22.6448 157.78 22.6448 159.943Z" fill="white"/>
<path d="M35.4283 156.389C35.2631 156.265 34.8774 156.141 34.478 156.141C33.6654 156.141 32.9217 156.582 32.4947 157.243V156.279H30.7456V163.551H32.4947V160.149C32.4947 158.538 33.2798 157.767 34.2714 157.767C34.5744 157.767 34.9325 157.835 35.1253 157.959L35.4283 156.389Z" fill="white"/>
<path d="M42.9289 156.279H41.0145L39.2929 161.526L37.5575 156.279H35.6018L38.3701 163.551H40.1744L42.9289 156.279Z" fill="white"/>
<path d="M45.3264 155.246V153.717H43.5773V155.246H45.3264ZM45.3264 163.551V156.279H43.5773V163.551H45.3264Z" fill="white"/>
<path d="M53.0238 157.794C52.4729 156.899 51.4813 156.114 49.98 156.114C47.8039 156.114 46.3716 157.753 46.3716 159.915C46.3716 162.091 47.8039 163.716 50.0076 163.716C51.4537 163.716 52.4316 163.028 53.0514 162.188L51.8669 161.223C51.4675 161.788 50.9166 162.188 50.1315 162.188C48.9471 162.188 48.2171 161.265 48.2171 159.901C48.2171 158.579 48.9195 157.643 50.104 157.643C50.8339 157.643 51.3849 158.001 51.7567 158.62L53.0238 157.794Z" fill="white"/>
<path d="M55.3133 159.102C55.3959 158.125 56.057 157.463 57.0486 157.463C57.9438 157.463 58.66 158.001 58.7427 159.102H55.3133ZM53.4264 159.943C53.4264 162.105 54.7623 163.716 57.1313 163.716C58.4259 163.716 59.4726 163.234 60.2301 162.325L59.1145 161.265C58.6463 161.857 57.9989 162.16 57.2277 162.16C56.1396 162.16 55.3133 161.526 55.2995 160.328H60.4367C60.4505 160.163 60.478 159.943 60.478 159.681C60.478 157.615 59.1834 156.114 57.0211 156.114C54.7486 156.114 53.4264 157.78 53.4264 159.943Z" fill="white"/>
<path d="M60.9486 162.518C61.7061 163.276 62.8079 163.716 64.1301 163.716C66.0445 163.716 67.2565 162.78 67.2565 161.265C67.2565 159.832 66.1547 159.337 64.4193 159.034C63.6067 158.896 62.7942 158.786 62.7942 158.207C62.7942 157.684 63.3726 157.491 64.0337 157.491C64.9289 157.491 65.7553 157.849 66.1822 158.331L67.1188 157.243C66.499 156.665 65.4936 156.114 64.1026 156.114C62.5325 156.114 61.1552 156.789 61.1552 158.386C61.1552 159.915 62.4498 160.356 63.7858 160.59C65.0529 160.81 65.5762 160.92 65.5762 161.471C65.5762 162.077 64.9978 162.325 64.2265 162.325C63.4139 162.325 62.5325 162.077 61.8852 161.416L60.9486 162.518Z" fill="white"/>
</g>
<defs>
<clipPath id="clip0_13_371">
<rect width="423.511" height="303" fill="white" transform="translate(0.244263)"/>
</clipPath>
</defs>
</svg>
